<svg width="152" height="40" viewBox="0 0 152 40" fill="none" xmlns="http://www.w3.org/2000/svg">
<path d="M96.206 12.0245C100.953 12.0245 104.193 14.6987 104.193 18.5797C104.193 21.7434 102.272 24.0415 98.5422 26.8291L86.3747 36.0586H100.463L99.748 38.771H80.9881L81.591 36.4358L96.6966 24.9835C99.5975 22.7987 101.104 21.0283 101.104 18.7683C101.104 16.5084 99.2585 14.7379 96.0937 14.7379C93.1556 14.7379 90.8194 16.3579 88.8614 18.354L86.9024 16.4702C89.2757 13.9464 92.2519 12.0255 96.2071 12.0255M96.2071 10.9554C92.4468 10.9554 89.1486 12.5193 86.1226 15.7381L85.3979 16.5094L86.1607 17.2426L88.1198 19.1264L88.8837 19.8607L89.6253 19.1042C91.8313 16.8559 93.8867 15.8091 96.0937 15.8091C98.5242 15.8091 100.033 16.9438 100.033 18.7694C100.033 20.4688 98.9173 21.9723 96.0524 24.1295L80.9436 35.5829L80.647 35.8075L80.5537 36.1677L79.9509 38.5029L79.6055 39.8411H100.572L100.783 39.0433L101.498 36.3309L101.853 34.9874H89.5575L99.1864 27.6842C102.834 24.957 105.264 22.3643 105.264 18.5787C105.264 14.0895 101.54 10.9533 96.2071 10.9533V10.9554Z" fill="#52CD07"/>
<path d="M129.434 1.76198L128.669 4.42243H117.045L114.348 12.4387C115.405 11.9281 117.373 11.4545 118.721 11.4545C123.567 11.4545 126.775 14.224 126.775 18.6327C126.775 23.4789 122.547 27.7064 116.134 27.7064C111.979 27.7064 108.992 25.6658 107.315 23.1515L109.538 21.5114C111.178 23.7703 113.291 25.1191 116.352 25.1191C120.834 25.1191 123.75 22.1312 123.75 18.851C123.75 15.79 121.418 13.9676 118.028 13.9676C116.461 13.9676 114.567 14.4052 112.817 15.3524L111.177 14.0407L115.186 1.76092H129.434M130.809 0.725769H114.434L114.201 1.43988L110.193 13.7197L109.971 14.402L110.531 14.8502L112.171 16.1619L112.707 16.591L113.311 16.2636C114.789 15.4626 116.509 15.0038 118.029 15.0038C119.47 15.0038 120.67 15.3683 121.498 16.0581C122.305 16.7298 122.714 17.6706 122.714 18.852C122.714 20.1997 122.12 21.4764 121.04 22.4448C119.862 23.5022 118.198 24.0839 116.353 24.0839C113.851 24.0839 111.952 23.0731 110.377 20.9032L109.764 20.0588L108.924 20.6786L106.701 22.3188L105.906 22.9047L106.454 23.7258C108.579 26.9139 112.108 28.7416 116.134 28.7416C119.411 28.7416 122.399 27.682 124.55 25.759C126.652 23.8784 127.81 21.3472 127.81 18.6327C127.81 16.1746 126.925 14.0927 125.251 12.6136C123.626 11.1769 121.368 10.4182 118.721 10.4182C117.932 10.4182 116.939 10.5613 115.995 10.7912L117.79 5.45652H129.45L129.665 4.70744L130.43 2.04699L130.81 0.725769H130.809Z" fill="#52CD07"/>
<path d="M115.56 31.6775H115.154L115.035 32.3524H115.441C115.561 32.3524 115.656 32.3227 115.727 32.2645C115.797 32.2062 115.843 32.1225 115.863 32.0155C115.868 31.9742 115.87 31.9477 115.87 31.935C115.87 31.8534 115.844 31.7898 115.792 31.7453C115.74 31.7008 115.662 31.6785 115.56 31.6785V31.6775Z" fill="#52CD07"/>
<path d="M121.301 31.704C121.132 31.704 120.983 31.7474 120.855 31.8343C120.726 31.9212 120.626 32.0367 120.556 32.1808C120.486 32.3249 120.451 32.4838 120.451 32.6575C120.451 32.8419 120.502 32.9871 120.605 33.093C120.708 33.199 120.852 33.2519 121.038 33.2519C121.207 33.2519 121.355 33.2085 121.483 33.1216C121.611 33.0347 121.71 32.9182 121.78 32.7709C121.85 32.6236 121.885 32.4647 121.885 32.2941C121.885 32.1098 121.834 31.9657 121.731 31.8608C121.629 31.7559 121.485 31.704 121.302 31.704H121.301Z" fill="#52CD07"/>
<path d="M105.198 30.0903L103.971 34.6537H125.599L126.826 30.0903H105.198ZM108.254 33.8315H107.598L107.76 32.9426L107.143 31.1414H107.887L108.209 32.2645L108.925 31.1414H109.661L108.415 32.9426L108.254 33.8315ZM111.022 33.8315H109.373L109.849 31.1403H111.498L111.405 31.6574H110.413L110.316 32.2168H111.194L111.107 32.7116H110.228L110.121 33.3134H111.114L111.022 33.8304V33.8315ZM113.207 33.8315L113.13 33.3558H112.126L111.88 33.8315H111.193L112.642 31.1403H113.4L113.898 33.8315H113.204H113.207ZM116.533 31.9879C116.503 32.167 116.424 32.327 116.299 32.4668C116.174 32.6077 116.007 32.7073 115.797 32.7656L116.23 33.8315H115.491L115.112 32.8154H114.955L114.775 33.8315H114.119L114.594 31.1403H115.694C115.973 31.1403 116.185 31.2039 116.33 31.33C116.476 31.4561 116.548 31.6203 116.548 31.8226C116.548 31.8809 116.543 31.936 116.533 31.9879V31.9879ZM118.78 31.9074H118.082C118.085 31.8968 118.087 31.882 118.087 31.8618C118.087 31.7909 118.062 31.7326 118.011 31.687C117.961 31.6415 117.893 31.6203 117.806 31.6203C117.714 31.6203 117.64 31.6425 117.581 31.687C117.523 31.7315 117.495 31.7919 117.495 31.8693C117.495 31.9466 117.531 32.0102 117.602 32.0632C117.673 32.1151 117.785 32.1765 117.936 32.2454C118.087 32.3143 118.211 32.3778 118.306 32.4372C118.402 32.4954 118.484 32.5749 118.553 32.6724C118.622 32.7709 118.657 32.8917 118.657 33.0347C118.657 33.1937 118.614 33.3346 118.531 33.4607C118.447 33.5867 118.325 33.6832 118.166 33.7541C118.007 33.8251 117.823 33.859 117.61 33.859C117.319 33.859 117.081 33.7955 116.899 33.6694C116.717 33.5433 116.625 33.3632 116.625 33.1312C116.625 33.1078 116.627 33.0739 116.632 33.0273H117.314C117.307 33.1248 117.33 33.2011 117.383 33.2572C117.437 33.3134 117.519 33.342 117.629 33.342C117.729 33.342 117.807 33.3208 117.864 33.2774C117.921 33.2339 117.95 33.1725 117.95 33.093C117.95 33.0135 117.914 32.9447 117.841 32.8938C117.768 32.843 117.655 32.7857 117.502 32.7211C117.353 32.6597 117.233 32.6014 117.139 32.5463C117.046 32.4912 116.965 32.417 116.896 32.3217C116.827 32.2274 116.792 32.1087 116.792 31.9657C116.79 31.7898 116.833 31.6362 116.922 31.5058C117.011 31.3755 117.135 31.2759 117.294 31.2071C117.453 31.1382 117.634 31.1032 117.839 31.1032C118.023 31.1032 118.186 31.1318 118.329 31.1891C118.472 31.2463 118.584 31.33 118.663 31.438C118.743 31.5472 118.782 31.6754 118.782 31.8237C118.782 31.8618 118.781 31.8905 118.777 31.9085L118.78 31.9074ZM122.333 33.0665C122.198 33.3155 122.009 33.5094 121.766 33.6493C121.524 33.7891 121.247 33.858 120.939 33.858C120.711 33.858 120.512 33.8103 120.339 33.716C120.167 33.6217 120.033 33.4882 119.939 33.3176C119.844 33.146 119.797 32.95 119.797 32.7275C119.797 32.4128 119.865 32.1331 120 31.8862C120.136 31.6393 120.324 31.4476 120.566 31.3098C120.808 31.1721 121.082 31.1032 121.388 31.1032C121.618 31.1032 121.82 31.1499 121.994 31.2431C122.168 31.3363 122.302 31.4677 122.397 31.6383C122.491 31.8078 122.539 32.0028 122.539 32.2231C122.539 32.5378 122.471 32.8197 122.335 33.0686L122.333 33.0665ZM124.729 31.6584H123.632L123.533 32.2369H124.353L124.26 32.7349H123.44L123.249 33.8315H122.593L123.069 31.1403H124.82L124.728 31.6574L124.729 31.6584Z" fill="#52CD07"/>
<path d="M112.381 32.8578H113.052L112.894 31.8608L112.381 32.8578Z" fill="#52CD07"/>
<path d="M96.7237 2.36267H96.3179L96.1992 3.03758H96.605C96.7247 3.03758 96.8201 3.00792 96.8911 2.94964C96.961 2.89137 97.0066 2.80767 97.0267 2.70066C97.032 2.65934 97.0341 2.63285 97.0341 2.62013C97.0341 2.53855 97.0076 2.47498 96.9557 2.43048C96.9038 2.38598 96.8265 2.36373 96.7237 2.36373V2.36267Z" fill="#52CD07"/>
<path d="M98.7148 3.54307H99.3855L99.2287 2.54712L98.7148 3.54307Z" fill="#52CD07"/>
<path d="M94.3834 3.45298C94.3293 3.41059 94.2552 3.3894 94.1609 3.3894H93.6851L93.5781 3.99545H94.0613C94.1736 3.99545 94.2626 3.97002 94.3293 3.91916C94.3961 3.86831 94.4374 3.79414 94.4554 3.69666C94.4607 3.66594 94.4628 3.64263 94.4628 3.6278C94.4628 3.55363 94.4363 3.49536 94.3823 3.45298H94.3834Z" fill="#52CD07"/>
<path d="M94.2982 2.34363H93.8691L93.7695 2.91895H94.1955C94.3056 2.91895 94.3936 2.89458 94.4603 2.84584C94.5271 2.7971 94.5673 2.72717 94.5832 2.635C94.5854 2.62016 94.5875 2.59897 94.5875 2.57354C94.5875 2.49938 94.5631 2.44216 94.5144 2.40296C94.4656 2.36376 94.3946 2.34363 94.2993 2.34363H94.2982Z" fill="#52CD07"/>
<path d="M82.5609 0.776611L81.334 5.33996H110.691L112.12 0.776611H82.5598H82.5609ZM85.1694 3.78141C85.269 3.8863 85.4057 3.93821 85.5795 3.93821C85.7045 3.93821 85.8221 3.90855 85.9302 3.85027C86.0382 3.792 86.1304 3.70724 86.2046 3.59705H86.9251C86.7969 3.88842 86.604 4.11833 86.3466 4.28468C86.088 4.45208 85.7999 4.53578 85.4799 4.53578C85.25 4.53578 85.0497 4.49128 84.8781 4.40122C84.7064 4.31222 84.5751 4.18508 84.4829 4.02192C84.3907 3.85875 84.3451 3.66804 84.3451 3.45084C84.3451 3.35336 84.3536 3.25906 84.3716 3.16688C84.4172 2.90095 84.5168 2.66467 84.6683 2.45595C84.8198 2.24722 85.0084 2.08512 85.2341 1.96963C85.4597 1.85414 85.7013 1.79481 85.962 1.79481C86.2809 1.79481 86.5405 1.87957 86.7386 2.04803C86.9367 2.2165 87.048 2.44641 87.0745 2.73778H86.354C86.3211 2.62759 86.2597 2.54389 86.1717 2.48667C86.0838 2.42946 85.9757 2.40085 85.8475 2.40085C85.6452 2.40085 85.4703 2.47078 85.322 2.60958C85.1737 2.74943 85.0794 2.93485 85.0381 3.16688C85.0253 3.23893 85.019 3.30144 85.019 3.35442C85.019 3.53348 85.0688 3.67545 85.1684 3.77929L85.1694 3.78141ZM88.8258 3.99967L88.7337 4.51671H87.0851L87.5608 1.82553H89.2094L89.1172 2.34258H88.1244L88.028 2.90201H88.9064L88.8184 3.3968H87.9401L87.8331 3.99861H88.8258V3.99967ZM90.5963 4.51671H89.0822L89.558 1.82553H90.2138L89.8271 4.01768H90.6853L90.5974 4.51565L90.5963 4.51671ZM92.5744 3.99967L92.4822 4.51671H90.8336L91.3094 1.82553H92.958L92.8658 2.34258H91.873L91.7766 2.90201H92.6549L92.567 3.3968H91.6887L91.5817 3.99861H92.5744V3.99967ZM95.0081 3.32475C95.0823 3.42223 95.1194 3.5356 95.1194 3.66592C95.1194 3.70724 95.1151 3.74644 95.1077 3.78458C95.0696 4.0092 94.9594 4.1872 94.7782 4.31964C94.597 4.45102 94.365 4.51671 94.0842 4.51671H92.8308L93.3065 1.82553H94.5176C94.7602 1.82553 94.9477 1.87533 95.0812 1.97493C95.2137 2.07452 95.2804 2.21226 95.2804 2.3892C95.2804 2.43264 95.2762 2.47714 95.2688 2.52376C95.2402 2.68269 95.1755 2.81407 95.0738 2.91896C94.9711 3.02385 94.8492 3.09696 94.7062 3.13722C94.8344 3.16583 94.935 3.22834 95.0092 3.32475H95.0081ZM97.392 4.51671H96.6525L96.2732 3.50063H96.1164L95.9363 4.51671H95.2804L95.7562 1.82553H96.8559C97.1346 1.82553 97.3465 1.88911 97.4916 2.01519C97.6379 2.14127 97.7099 2.3055 97.7099 2.50786C97.7099 2.56614 97.7046 2.62123 97.6951 2.67315C97.6643 2.85221 97.5859 3.0122 97.4609 3.15205C97.3359 3.29297 97.1685 3.39256 96.9587 3.45084L97.392 4.51671V4.51671ZM99.5386 4.51671L99.4624 4.04099H98.4579L98.2121 4.51671H97.5255L98.9739 1.82553H99.7325L100.231 4.51671H99.5365H99.5386ZM101.674 4.51671H101.018L101.401 2.34364H100.688L100.78 1.82659H102.861L102.773 2.34364H102.057L101.674 4.51671V4.51671ZM102.64 4.51671L103.116 1.82553H103.771L103.296 4.51671H102.64ZM106.101 4.51671H105.445L104.644 2.85751L104.349 4.51671H103.693L104.169 1.82553H104.825L105.626 3.49322L105.921 1.82553H106.577L106.101 4.51671ZM107.443 3.80366C107.553 3.90537 107.709 3.95729 107.91 3.95729C108.073 3.95729 108.218 3.91596 108.343 3.83226C108.468 3.74962 108.569 3.63095 108.646 3.47732H107.819L107.899 2.99842H109.325L109.218 3.60764C109.142 3.77081 109.033 3.92338 108.891 4.0643C108.749 4.20521 108.582 4.31858 108.387 4.40546C108.192 4.49234 107.983 4.53578 107.758 4.53578C107.534 4.53578 107.322 4.49022 107.147 4.40016C106.972 4.30905 106.838 4.1819 106.744 4.01874C106.651 3.85557 106.605 3.66486 106.605 3.44766C106.605 3.37349 106.613 3.28025 106.631 3.16794C106.677 2.90201 106.776 2.66573 106.928 2.45701C107.079 2.24828 107.27 2.08618 107.497 1.97069C107.723 1.8552 107.97 1.79587 108.236 1.79587C108.558 1.79587 108.817 1.87427 109.013 2.03002C109.208 2.18577 109.315 2.40191 109.333 2.67739H108.612C108.58 2.58839 108.521 2.51952 108.438 2.47184C108.355 2.42416 108.253 2.40085 108.132 2.40085C107.92 2.40085 107.738 2.47078 107.587 2.60958C107.434 2.74943 107.338 2.93485 107.297 3.16688C107.285 3.24317 107.278 3.30992 107.278 3.36607C107.278 3.55573 107.334 3.70088 107.443 3.8026V3.80366Z" fill="#52CD07"/>
<path d="M112.041 38.0452H112.712L112.555 37.0482L112.041 38.0452Z" fill="#52CD07"/>
<path d="M115.123 36.8872H114.809L114.533 38.4585H114.844C115.092 38.4585 115.297 38.3896 115.46 38.2519C115.623 38.1141 115.726 37.9213 115.766 37.6734C115.779 37.5971 115.786 37.5325 115.786 37.4816C115.786 37.293 115.728 37.1457 115.613 37.043C115.497 36.9391 115.334 36.8872 115.122 36.8872H115.123Z" fill="#52CD07"/>
<path d="M103.756 35.2778L102.529 39.8411H150.14L151.367 35.2778H103.756V35.2778ZM107.273 39.0189L107.196 38.5432H106.192L105.946 39.0189H105.26L106.708 36.3278H107.467L107.965 39.0189H107.271H107.273ZM110.289 38.7869C110.031 38.9543 109.742 39.038 109.423 39.038C109.193 39.038 108.992 38.9935 108.821 38.9034C108.649 38.8144 108.518 38.6873 108.426 38.5241C108.333 38.361 108.288 38.1703 108.288 37.9531C108.288 37.8556 108.296 37.7613 108.314 37.6691C108.36 37.4032 108.459 37.1669 108.611 36.9582C108.762 36.7494 108.951 36.5873 109.177 36.4719C109.402 36.3564 109.644 36.297 109.905 36.297C110.224 36.297 110.483 36.3818 110.681 36.5503C110.879 36.7187 110.991 36.9486 111.017 37.24H110.297C110.264 37.1298 110.202 37.0461 110.114 36.9889C110.026 36.9317 109.918 36.9031 109.79 36.9031C109.588 36.9031 109.413 36.973 109.265 37.1118C109.116 37.2517 109.022 37.4371 108.981 37.6691C108.968 37.7412 108.962 37.8037 108.962 37.8566C108.962 38.0357 109.011 38.1777 109.111 38.2815C109.211 38.3864 109.347 38.4383 109.521 38.4383C109.646 38.4383 109.764 38.4086 109.872 38.3504C109.98 38.2921 110.072 38.2073 110.146 38.0972H110.867C110.738 38.3885 110.546 38.6184 110.288 38.7848L110.289 38.7869ZM112.865 39.0189L112.789 38.5432H111.784L111.538 39.0189H110.852L112.3 36.3278H113.059L113.557 39.0189H112.863H112.865ZM116.433 37.6733C116.388 37.9361 116.288 38.1703 116.137 38.3747C115.985 38.5792 115.791 38.7371 115.558 38.8505C115.324 38.9628 115.067 39.0189 114.786 39.0189H113.778L114.254 36.3278H115.262C115.509 36.3278 115.723 36.3723 115.904 36.4602C116.084 36.5481 116.221 36.6721 116.318 36.8321C116.414 36.9921 116.462 37.1785 116.462 37.3936C116.462 37.4678 116.453 37.561 116.435 37.6733H116.433ZM118.227 38.5008L118.135 39.0179H116.486L116.962 36.3267H118.611L118.518 36.8437H117.526L117.429 37.4032H118.308L118.22 37.898H117.341L117.234 38.4998H118.227V38.5008ZM120.876 39.0179L121.163 37.4042L120.274 39.0179H119.745L119.423 37.3968L119.139 39.0179H118.484L118.959 36.3267H119.734L120.163 38.1893L121.236 36.3267H122.006L121.531 39.0179H120.875H120.876ZM122.582 39.0179H121.926L122.402 36.3267H123.057L122.582 39.0179ZM123.908 38.2815C124.008 38.3864 124.145 38.4383 124.318 38.4383C124.443 38.4383 124.561 38.4086 124.669 38.3504C124.777 38.2921 124.869 38.2073 124.943 38.0972H125.664C125.536 38.3885 125.343 38.6184 125.085 38.7848C124.827 38.9522 124.539 39.0359 124.219 39.0359C123.989 39.0359 123.789 38.9914 123.617 38.9013C123.445 38.8123 123.314 38.6852 123.222 38.522C123.13 38.3589 123.084 38.1681 123.084 37.9509C123.084 37.8535 123.092 37.7592 123.11 37.667C123.156 37.401 123.256 37.1648 123.407 36.956C123.559 36.7473 123.747 36.5852 123.973 36.4697C124.199 36.3542 124.44 36.2949 124.701 36.2949C125.02 36.2949 125.279 36.3797 125.477 36.5481C125.676 36.7166 125.787 36.9465 125.813 37.2379H125.093C125.06 37.1277 124.999 37.044 124.911 36.9868C124.823 36.9296 124.715 36.901 124.586 36.901C124.384 36.901 124.209 36.9709 124.061 37.1097C123.913 37.2495 123.818 37.435 123.777 37.667C123.764 37.739 123.758 37.8015 123.758 37.8545C123.758 38.0336 123.808 38.1756 123.907 38.2794L123.908 38.2815ZM128.374 38.4998L128.282 39.0168H126.633L127.109 36.3256H128.758L128.665 36.8427H127.673L127.576 37.4021H128.455L128.367 37.8969H127.488L127.381 38.4987H128.374V38.4998ZM130.279 39.0168L129.877 38.1925L129.248 39.0168H128.504L129.608 37.6479L128.961 36.3256H129.724L130.122 37.1383L130.739 36.3256H131.483L130.386 37.6829L131.042 39.0168H130.279V39.0168ZM132.222 38.2804C132.322 38.3853 132.459 38.4373 132.632 38.4373C132.757 38.4373 132.875 38.4076 132.983 38.3493C133.091 38.291 133.183 38.2063 133.257 38.0961H133.978C133.85 38.3875 133.657 38.6174 133.399 38.7837C133.141 38.9511 132.853 39.0348 132.533 39.0348C132.303 39.0348 132.103 38.9903 131.931 38.9003C131.759 38.8113 131.628 38.6841 131.536 38.521C131.444 38.3578 131.398 38.1671 131.398 37.9499C131.398 37.8524 131.406 37.7581 131.424 37.6659C131.47 37.4 131.57 37.1637 131.721 36.955C131.873 36.7463 132.061 36.5842 132.287 36.4687C132.513 36.3532 132.754 36.2938 133.015 36.2938C133.334 36.2938 133.593 36.3786 133.791 36.5471C133.99 36.7155 134.101 36.9455 134.127 37.2368H133.407C133.374 37.1266 133.313 37.0429 133.225 36.9857C133.137 36.9285 133.029 36.8999 132.9 36.8999C132.698 36.8999 132.523 36.9698 132.375 37.1086C132.227 37.2485 132.132 37.4339 132.091 37.6659C132.078 37.738 132.072 37.8005 132.072 37.8535C132.072 38.0325 132.122 38.1745 132.221 38.2783L132.222 38.2804ZM135.879 38.4987L135.787 39.0158H134.138L134.614 36.3246H136.262L136.17 36.8416H135.177L135.081 37.401H135.959L135.871 37.8958H134.993L134.886 38.4976H135.879V38.4987ZM137.649 39.0158H136.135L136.611 36.3246H137.267L136.88 38.5167H137.738L137.65 39.0147L137.649 39.0158ZM139.401 39.0158H137.886L138.362 36.3246H139.018L138.631 38.5167H139.49L139.402 39.0147L139.401 39.0158ZM141.379 38.4987L141.286 39.0158H139.638L140.114 36.3246H141.762L141.67 36.8416H140.677L140.581 37.401H141.459L141.371 37.8958H140.493L140.386 38.4976H141.379V38.4987ZM144.042 39.0158H143.386L142.585 37.3565L142.29 39.0158H141.634L142.11 36.3246H142.766L143.567 37.9923L143.862 36.3246H144.518L144.042 39.0158ZM145.369 38.2794C145.468 38.3843 145.605 38.4362 145.779 38.4362C145.904 38.4362 146.021 38.4065 146.13 38.3483C146.238 38.29 146.33 38.2052 146.404 38.095H147.124C146.996 38.3864 146.803 38.6163 146.546 38.7827C146.287 38.9501 145.999 39.0338 145.679 39.0338C145.449 39.0338 145.249 38.9893 145.077 38.8992C144.906 38.8102 144.774 38.6831 144.682 38.5199C144.59 38.3567 144.544 38.166 144.544 37.9488C144.544 37.8513 144.553 37.757 144.571 37.6649C144.617 37.3989 144.716 37.1627 144.868 36.9539C145.019 36.7452 145.208 36.5831 145.433 36.4676C145.659 36.3521 145.901 36.2928 146.161 36.2928C146.48 36.2928 146.74 36.3776 146.938 36.546C147.136 36.7145 147.247 36.9444 147.274 37.2358H146.553C146.52 37.1256 146.459 37.0419 146.371 36.9847C146.283 36.9274 146.175 36.8988 146.047 36.8988C145.845 36.8988 145.67 36.9688 145.521 37.1076C145.373 37.2474 145.279 37.4328 145.237 37.6649C145.225 37.7369 145.218 37.7994 145.218 37.8524C145.218 38.0315 145.268 38.1734 145.368 38.2773L145.369 38.2794ZM149.317 36.8416H148.324L148.227 37.401H149.106L149.018 37.8958H148.139L148.032 38.4976H149.025L148.933 39.0147H147.284L147.76 36.3235H149.409L149.317 36.8406V36.8416Z" fill="#52CD07"/>
<path d="M106.449 38.0452H107.12L106.962 37.0482L106.449 38.0452Z" fill="#52CD07"/>
<path fill-rule="evenodd" clip-rule="evenodd" d="M46.3338 15.7275C46.2512 16.7129 46.0869 17.6993 45.8411 18.6031L51.9207 21.5612L50.4416 24.8468L44.0728 22.8613C43.4975 23.9293 43.0482 24.6826 42.3098 25.5863L46.746 30.5979L44.1989 33.0623L39.0231 28.873C38.202 29.5309 37.3798 30.1052 36.476 30.5979L38.5294 37.1701L35.1612 38.3196L32.2041 32.4043C31.1361 32.7328 29.9854 32.9797 28.8359 33.1439L28.3432 39.7987L24.8107 39.7161L24.2354 33.1439C23.0848 32.9797 22.0168 32.7328 21.0314 32.487L17.7459 38.4023L14.5419 36.9242L16.7595 30.6805C15.8557 30.1052 15.0049 29.5733 14.1838 28.9153L8.70924 33.0623L6.40903 30.351L10.9279 25.6679C10.271 24.8468 9.61301 23.8604 9.12034 22.9566L2.54814 24.9284L1.3975 21.5602L7.39438 18.6846C7.06593 17.7809 6.9017 16.7129 6.73642 15.7275L0 14.988V13.3447H7.96864C7.96864 23.6135 16.2668 31.9932 26.5356 31.9932C36.8045 31.9932 45.1832 23.6135 45.1832 13.3447H53.1518V14.988L46.3338 15.7275V15.7275Z" fill="#52CD07"/>
<path fill-rule="evenodd" clip-rule="evenodd" d="M26.6181 28.3792C34.9152 28.3792 41.6516 21.6428 41.6516 13.3457H42.9664C42.9664 22.3823 35.5731 29.7757 26.5365 29.7757C17.4998 29.7757 10.1055 22.3823 10.1055 13.3457H11.5846C11.5846 21.6439 18.321 28.3792 26.6181 28.3792" fill="#52CD07"/>
<path fill-rule="evenodd" clip-rule="evenodd" d="M26.5332 24.9294C32.9411 24.9294 38.1169 19.7537 38.1169 13.3457H39.4318C39.4318 20.4932 33.6807 26.2432 26.5342 26.2432C19.3878 26.2432 13.6367 20.4922 13.6367 13.3457H14.9516C14.9516 19.7537 20.1273 24.9294 26.5353 24.9294" fill="#52CD07"/>
<path fill-rule="evenodd" clip-rule="evenodd" d="M12.1582 14.4137H16.5118V0.776611H12.1582V14.4137ZM15.4438 13.3457H13.3078V2.00883H15.4438V13.3457Z" fill="#52CD07"/>
<path fill-rule="evenodd" clip-rule="evenodd" d="M41.8989 2.00883H35.0799V3.81637H37.5443V13.3457H39.6803V3.81531H41.8989V2.00883ZM40.7483 5.13017V14.4137H36.3947V5.13017H33.8477V0.776611H43.0485V5.13017H40.7483Z" fill="#52CD07"/>
<path fill-rule="evenodd" clip-rule="evenodd" d="M21.6064 1.84461H19.3062L16.5949 7.67726L19.3062 13.3457L21.6064 13.4283L18.8951 7.67726L21.6064 1.84461V1.84461ZM23.2497 14.4137H18.6493L15.4453 7.67726L18.6493 0.776611H23.2497L20.0457 7.67726L23.2497 14.4137V14.4137Z" fill="#52CD07"/>
<path fill-rule="evenodd" clip-rule="evenodd" d="M27.1918 6.6909H25.0558V13.3447H27.1918V6.6909ZM23.9062 5.45868H28.2598V14.4137H23.9062V5.45868V5.45868Z" fill="#52CD07"/>
<path fill-rule="evenodd" clip-rule="evenodd" d="M32.0613 6.6909H30.045V13.3447H32.0613V6.6909ZM28.834 5.45868H33.1897V14.4137H28.834V5.45868V5.45868Z" fill="#52CD07"/>
<path fill-rule="evenodd" clip-rule="evenodd" d="M33.1886 2.95288C33.1886 4.15544 32.2139 5.13019 31.0113 5.13019C29.8087 5.13019 28.834 4.15544 28.834 2.95288C28.834 1.75033 29.8087 0.775574 31.0113 0.775574C32.2139 0.775574 33.1886 1.75033 33.1886 2.95288Z" fill="#52CD07"/>
<path fill-rule="evenodd" clip-rule="evenodd" d="M28.2609 2.95288C28.2609 4.15544 27.2861 5.13019 26.0836 5.13019C24.881 5.13019 23.9062 4.15544 23.9062 2.95288C23.9062 1.75033 24.881 0.775574 26.0836 0.775574C27.2861 0.775574 28.2609 1.75033 28.2609 2.95288Z" fill="#52CD07"/>
<path d="M68.0085 40C67.9206 40 67.8496 39.929 67.8496 39.8411V39.0401C67.8496 38.9522 67.9206 38.8812 68.0085 38.8812C68.0965 38.8812 68.1675 38.9522 68.1675 39.0401V39.8411C68.1675 39.929 68.0965 40 68.0085 40Z" fill="#52CD07"/>
<path d="M68.0085 37.9657C67.9206 37.9657 67.8496 37.8947 67.8496 37.8068V36.2048C67.8496 36.1169 67.9206 36.0459 68.0085 36.0459C68.0965 36.0459 68.1675 36.1169 68.1675 36.2048V37.8068C68.1675 37.8947 68.0965 37.9657 68.0085 37.9657ZM68.0085 35.1315C67.9206 35.1315 67.8496 35.0605 67.8496 34.9726V33.3706C67.8496 33.2827 67.9206 33.2117 68.0085 33.2117C68.0965 33.2117 68.1675 33.2827 68.1675 33.3706V34.9726C68.1675 35.0605 68.0965 35.1315 68.0085 35.1315ZM68.0085 32.2973C67.9206 32.2973 67.8496 32.2263 67.8496 32.1384V30.5364C67.8496 30.4484 67.9206 30.3775 68.0085 30.3775C68.0965 30.3775 68.1675 30.4484 68.1675 30.5364V32.1384C68.1675 32.2263 68.0965 32.2973 68.0085 32.2973ZM68.0085 29.4631C67.9206 29.4631 67.8496 29.3921 67.8496 29.3042V27.7022C67.8496 27.6142 67.9206 27.5432 68.0085 27.5432C68.0965 27.5432 68.1675 27.6142 68.1675 27.7022V29.3042C68.1675 29.3921 68.0965 29.4631 68.0085 29.4631ZM68.0085 26.6289C67.9206 26.6289 67.8496 26.5579 67.8496 26.47V24.868C67.8496 24.78 67.9206 24.709 68.0085 24.709C68.0965 24.709 68.1675 24.78 68.1675 24.868V26.47C68.1675 26.5579 68.0965 26.6289 68.0085 26.6289ZM68.0085 23.7947C67.9206 23.7947 67.8496 23.7237 67.8496 23.6357V22.0338C67.8496 21.9458 67.9206 21.8748 68.0085 21.8748C68.0965 21.8748 68.1675 21.9458 68.1675 22.0338V23.6357C68.1675 23.7237 68.0965 23.7947 68.0085 23.7947ZM68.0085 20.9605C67.9206 20.9605 67.8496 20.8895 67.8496 20.8015V19.1995C67.8496 19.1116 67.9206 19.0406 68.0085 19.0406C68.0965 19.0406 68.1675 19.1116 68.1675 19.1995V20.8015C68.1675 20.8895 68.0965 20.9605 68.0085 20.9605ZM68.0085 18.1262C67.9206 18.1262 67.8496 18.0553 67.8496 17.9673V16.3653C67.8496 16.2774 67.9206 16.2064 68.0085 16.2064C68.0965 16.2064 68.1675 16.2774 68.1675 16.3653V17.9673C68.1675 18.0553 68.0965 18.1262 68.0085 18.1262ZM68.0085 15.292C67.9206 15.292 67.8496 15.221 67.8496 15.1331V13.5311C67.8496 13.4432 67.9206 13.3722 68.0085 13.3722C68.0965 13.3722 68.1675 13.4432 68.1675 13.5311V15.1331C68.1675 15.221 68.0965 15.292 68.0085 15.292ZM68.0085 12.4578C67.9206 12.4578 67.8496 12.3868 67.8496 12.2989V10.6969C67.8496 10.609 67.9206 10.538 68.0085 10.538C68.0965 10.538 68.1675 10.609 68.1675 10.6969V12.2989C68.1675 12.3868 68.0965 12.4578 68.0085 12.4578ZM68.0085 9.62361C67.9206 9.62361 67.8496 9.55262 67.8496 9.46468V7.86269C67.8496 7.77475 67.9206 7.70376 68.0085 7.70376C68.0965 7.70376 68.1675 7.77475 68.1675 7.86269V9.46468C68.1675 9.55262 68.0965 9.62361 68.0085 9.62361ZM68.0085 6.7894C67.9206 6.7894 67.8496 6.71841 67.8496 6.63047V5.02848C67.8496 4.94054 67.9206 4.86955 68.0085 4.86955C68.0965 4.86955 68.1675 4.94054 68.1675 5.02848V6.63047C68.1675 6.71841 68.0965 6.7894 68.0085 6.7894ZM68.0085 3.95519C67.9206 3.95519 67.8496 3.8842 67.8496 3.79626V2.19427C67.8496 2.10633 67.9206 2.03534 68.0085 2.03534C68.0965 2.03534 68.1675 2.10633 68.1675 2.19427V3.79626C68.1675 3.8842 68.0965 3.95519 68.0085 3.95519Z" fill="#52CD07"/>
<path d="M68.0085 1.11885C67.9206 1.11885 67.8496 1.04786 67.8496 0.959924V0.158928C67.8496 0.0709877 67.9206 0 68.0085 0C68.0965 0 68.1675 0.0709877 68.1675 0.158928V0.959924C68.1675 1.04786 68.0965 1.11885 68.0085 1.11885V1.11885Z" fill="#52CD07"/>
</svg>
